<svg width="161" height="161" viewBox="0 0 161 161" fill="none" xmlns="http://www.w3.org/2000/svg">
<path d="M157 135.16V137C156.998 141.313 155.601 145.509 153.019 148.964C150.436 152.418 146.807 154.945 142.671 156.168C138.535 157.391 134.115 157.244 130.069 155.749C126.023 154.255 122.569 151.492 120.222 147.874C117.875 144.256 116.76 139.976 117.043 135.673C117.327 131.369 118.994 127.273 121.797 123.994C124.599 120.716 128.386 118.431 132.592 117.48C136.799 116.53 141.201 116.965 145.14 118.72M157 121L137 141.02L131 135.02" stroke="white" stroke-width="4" stroke-linecap="round" stroke-linejoin="round"/>
<path d="M130.375 31.0417C130.375 41.328 105.359 49.6667 74.5 49.6667C43.6411 49.6667 18.625 41.328 18.625 31.0417M130.375 31.0417C130.375 20.7554 105.359 12.4167 74.5 12.4167C43.6411 12.4167 18.625 20.7554 18.625 31.0417M130.375 31.0417V117.958C130.375 128.264 105.542 136.583 74.5 136.583C43.4583 136.583 18.625 128.264 18.625 117.958V31.0417M130.375 74.5001C130.375 84.8059 105.542 93.1251 74.5 93.1251C43.4583 93.1251 18.625 84.8059 18.625 74.5001" stroke="white" stroke-width="4" stroke-linecap="round" stroke-linejoin="round"/>
</svg>
