<svg width="36" height="33" viewBox="0 0 36 33" fill="none" xmlns="http://www.w3.org/2000/svg">
<path d="M21.9375 8.46774C21.6703 8.71899 21.5206 9.05678 21.5206 9.4086C21.5206 9.76042 21.6703 10.0982 21.9375 10.3495L24.2708 12.5C24.5434 12.7463 24.9099 12.8842 25.2916 12.8842C25.6734 12.8842 26.0399 12.7463 26.3125 12.5L31.8104 7.4328C32.5437 8.92633 32.7657 10.5904 32.4469 12.2032C32.1281 13.8159 31.2835 15.3009 30.0258 16.4601C28.7681 17.6192 27.1569 18.3976 25.4071 18.6915C23.6572 18.9853 21.8517 18.7807 20.2312 18.1048L10.1541 27.3925C9.57398 27.9272 8.78711 28.2276 7.96664 28.2276C7.14617 28.2276 6.3593 27.9272 5.77914 27.3925C5.19898 26.8578 4.87305 26.1325 4.87305 25.3763C4.87305 24.6201 5.19898 23.8949 5.77914 23.3602L15.8562 14.0726C15.1229 12.579 14.9009 10.915 15.2197 9.30222C15.5386 7.68944 16.3831 6.20451 17.6408 5.04532C18.8985 3.88614 20.5097 3.10775 22.2596 2.8139C24.0094 2.52005 25.8149 2.72468 27.4354 3.40054L21.9375 8.46774Z" stroke="white" stroke-width="4" stroke-linecap="round" stroke-linejoin="round"/>
</svg>
