<svg width="36" height="29" viewBox="0 0 36 29" fill="none" xmlns="http://www.w3.org/2000/svg">
<path d="M23.8333 19.5054V2.03226H1.95825V19.5054H23.8333ZM23.8333 19.5054H34.0416V12.7849L29.6666 8.75269H23.8333V19.5054ZM12.1666 22.8656C12.1666 24.7214 10.5343 26.2258 8.52075 26.2258C6.50721 26.2258 4.87492 24.7214 4.87492 22.8656C4.87492 21.0098 6.50721 19.5054 8.52075 19.5054C10.5343 19.5054 12.1666 21.0098 12.1666 22.8656ZM31.1249 22.8656C31.1249 24.7214 29.4926 26.2258 27.4791 26.2258C25.4655 26.2258 23.8333 24.7214 23.8333 22.8656C23.8333 21.0098 25.4655 19.5054 27.4791 19.5054C29.4926 19.5054 31.1249 21.0098 31.1249 22.8656Z" stroke="white" stroke-width="4" stroke-linecap="round" stroke-linejoin="round"/>
</svg>
