<svg width="35" height="29" viewBox="0 0 35 29" fill="none" xmlns="http://www.w3.org/2000/svg">
<path d="M24.7397 26.2258V23.5376C24.7397 22.1117 24.1295 20.7442 23.0433 19.736C21.9572 18.7277 20.484 18.1613 18.948 18.1613H7.36466C5.82862 18.1613 4.35549 18.7277 3.26934 19.736C2.18319 20.7442 1.573 22.1117 1.573 23.5376V26.2258M33.4272 26.2258V23.5376C33.4262 22.3464 32.9991 21.1892 32.2129 20.2477C31.4267 19.3063 30.3259 18.6338 29.0834 18.336M23.2917 2.20699C24.5376 2.50309 25.6418 3.17567 26.4303 4.1187C27.2188 5.06172 27.6469 6.22154 27.6469 7.41532C27.6469 8.6091 27.2188 9.76892 26.4303 10.7119C25.6418 11.655 24.5376 12.3276 23.2917 12.6237M18.948 7.4086C18.948 10.3779 16.355 12.7849 13.1563 12.7849C9.95768 12.7849 7.36466 10.3779 7.36466 7.4086C7.36466 4.43933 9.95768 2.03226 13.1563 2.03226C16.355 2.03226 18.948 4.43933 18.948 7.4086Z" stroke="white" stroke-width="4" stroke-linecap="round" stroke-linejoin="round"/>
</svg>
